<svg width="156" height="38" viewBox="0 0 156 38" fill="none" xmlns="http://www.w3.org/2000/svg">
<g filter="url(#filter0_d_1_13)">
<circle cx="19" cy="15" r="15" fill="#121212"/>
<path d="M18.5916 19.084C17.9756 19.084 17.4236 18.984 16.9356 18.784C16.4476 18.584 16.0556 18.288 15.7596 17.896C15.4716 17.504 15.3196 17.032 15.3036 16.48H17.4876C17.5196 16.792 17.6276 17.032 17.8116 17.2C17.9956 17.36 18.2356 17.44 18.5316 17.44C18.8356 17.44 19.0756 17.372 19.2516 17.236C19.4276 17.092 19.5156 16.896 19.5156 16.648C19.5156 16.44 19.4436 16.268 19.2996 16.132C19.1636 15.996 18.9916 15.884 18.7836 15.796C18.5836 15.708 18.2956 15.608 17.9196 15.496C17.3756 15.328 16.9316 15.16 16.5876 14.992C16.2436 14.824 15.9476 14.576 15.6996 14.248C15.4516 13.92 15.3276 13.492 15.3276 12.964C15.3276 12.18 15.6116 11.568 16.1796 11.128C16.7476 10.68 17.4876 10.456 18.3996 10.456C19.3276 10.456 20.0756 10.68 20.6436 11.128C21.2116 11.568 21.5156 12.184 21.5556 12.976H19.3356C19.3196 12.704 19.2196 12.492 19.0356 12.34C18.8516 12.18 18.6156 12.1 18.3276 12.1C18.0796 12.1 17.8796 12.168 17.7276 12.304C17.5756 12.432 17.4996 12.62 17.4996 12.868C17.4996 13.14 17.6276 13.352 17.8836 13.504C18.1396 13.656 18.5396 13.82 19.0836 13.996C19.6276 14.18 20.0676 14.356 20.4036 14.524C20.7476 14.692 21.0436 14.936 21.2916 15.256C21.5396 15.576 21.6636 15.988 21.6636 16.492C21.6636 16.972 21.5396 17.408 21.2916 17.8C21.0516 18.192 20.6996 18.504 20.2356 18.736C19.7716 18.968 19.2236 19.084 18.5916 19.084Z" fill="white"/>
<path d="M48.4239 20.098C47.7052 20.098 47.0612 19.9813 46.4919 19.748C45.9225 19.5147 45.4652 19.1693 45.1199 18.712C44.7839 18.2547 44.6065 17.704 44.5879 17.06H47.1359C47.1732 17.424 47.2992 17.704 47.5139 17.9C47.7285 18.0867 48.0085 18.18 48.3539 18.18C48.7085 18.18 48.9885 18.1007 49.1939 17.942C49.3992 17.774 49.5019 17.5453 49.5019 17.256C49.5019 17.0133 49.4179 16.8127 49.2499 16.654C49.0912 16.4953 48.8905 16.3647 48.6479 16.262C48.4145 16.1593 48.0785 16.0427 47.6399 15.912C47.0052 15.716 46.4872 15.52 46.0859 15.324C45.6845 15.128 45.3392 14.8387 45.0499 14.456C44.7605 14.0733 44.6159 13.574 44.6159 12.958C44.6159 12.0433 44.9472 11.3293 45.6099 10.816C46.2725 10.2933 47.1359 10.032 48.1999 10.032C49.2825 10.032 50.1552 10.2933 50.8179 10.816C51.4805 11.3293 51.8352 12.048 51.8819 12.972H49.2919C49.2732 12.6547 49.1565 12.4073 48.9419 12.23C48.7272 12.0433 48.4519 11.95 48.1159 11.95C47.8265 11.95 47.5932 12.0293 47.4159 12.188C47.2385 12.3373 47.1499 12.5567 47.1499 12.846C47.1499 13.1633 47.2992 13.4107 47.5979 13.588C47.8965 13.7653 48.3632 13.9567 48.9979 14.162C49.6325 14.3767 50.1459 14.582 50.5379 14.778C50.9392 14.974 51.2845 15.2587 51.5739 15.632C51.8632 16.0053 52.0079 16.486 52.0079 17.074C52.0079 17.634 51.8632 18.1427 51.5739 18.6C51.2939 19.0573 50.8832 19.4213 50.3419 19.692C49.8005 19.9627 49.1612 20.098 48.4239 20.098ZM59.1292 20.098C58.2052 20.098 57.3558 19.8833 56.5812 19.454C55.8158 19.0247 55.2045 18.4273 54.7472 17.662C54.2992 16.8873 54.0752 16.0193 54.0752 15.058C54.0752 14.0967 54.2992 13.2333 54.7472 12.468C55.2045 11.7027 55.8158 11.1053 56.5812 10.676C57.3558 10.2467 58.2052 10.032 59.1292 10.032C60.0532 10.032 60.8978 10.2467 61.6632 10.676C62.4378 11.1053 63.0445 11.7027 63.4832 12.468C63.9312 13.2333 64.1552 14.0967 64.1552 15.058C64.1552 16.0193 63.9312 16.8873 63.4832 17.662C63.0352 18.4273 62.4285 19.0247 61.6632 19.454C60.8978 19.8833 60.0532 20.098 59.1292 20.098ZM59.1292 17.914C59.9132 17.914 60.5385 17.6527 61.0052 17.13C61.4812 16.6073 61.7192 15.9167 61.7192 15.058C61.7192 14.19 61.4812 13.4993 61.0052 12.986C60.5385 12.4633 59.9132 12.202 59.1292 12.202C58.3358 12.202 57.7012 12.4587 57.2252 12.972C56.7585 13.4853 56.5252 14.1807 56.5252 15.058C56.5252 15.926 56.7585 16.6213 57.2252 17.144C57.7012 17.6573 58.3358 17.914 59.1292 17.914ZM68.839 10.172V16.052C68.839 16.64 68.9837 17.0927 69.273 17.41C69.5624 17.7273 69.987 17.886 70.547 17.886C71.107 17.886 71.5364 17.7273 71.835 17.41C72.1337 17.0927 72.283 16.64 72.283 16.052V10.172H74.677V16.038C74.677 16.9153 74.4904 17.6573 74.117 18.264C73.7437 18.8707 73.2397 19.328 72.605 19.636C71.9797 19.944 71.2797 20.098 70.505 20.098C69.7304 20.098 69.035 19.9487 68.419 19.65C67.8124 19.342 67.3317 18.8847 66.977 18.278C66.6224 17.662 66.445 16.9153 66.445 16.038V10.172H68.839ZM86.1501 20H83.7561L79.7521 13.938V20H77.3581V10.172H79.7521L83.7561 16.262V10.172H86.1501V20ZM92.5675 10.172C93.6035 10.172 94.5088 10.3773 95.2835 10.788C96.0581 11.1987 96.6555 11.7773 97.0755 12.524C97.5048 13.2613 97.7195 14.1153 97.7195 15.086C97.7195 16.0473 97.5048 16.9013 97.0755 17.648C96.6555 18.3947 96.0535 18.9733 95.2695 19.384C94.4948 19.7947 93.5941 20 92.5675 20H88.8855V10.172H92.5675ZM92.4135 17.928C93.3188 17.928 94.0235 17.6807 94.5275 17.186C95.0315 16.6913 95.2835 15.9913 95.2835 15.086C95.2835 14.1807 95.0315 13.476 94.5275 12.972C94.0235 12.468 93.3188 12.216 92.4135 12.216H91.2795V17.928H92.4135ZM107.127 10.172V12.09H104.523V20H102.129V12.09H99.5253V10.172H107.127ZM114.341 20L112.297 16.29H111.723V20H109.329V10.172H113.347C114.121 10.172 114.779 10.3073 115.321 10.578C115.871 10.8487 116.282 11.222 116.553 11.698C116.823 12.1647 116.959 12.6873 116.959 13.266C116.959 13.9193 116.772 14.5027 116.399 15.016C116.035 15.5293 115.493 15.8933 114.775 16.108L117.043 20H114.341ZM111.723 14.596H113.207C113.645 14.596 113.972 14.4887 114.187 14.274C114.411 14.0593 114.523 13.756 114.523 13.364C114.523 12.9907 114.411 12.6967 114.187 12.482C113.972 12.2673 113.645 12.16 113.207 12.16H111.723V14.596ZM125.58 18.264H121.912L121.324 20H118.818L122.374 10.172H125.146L128.702 20H126.168L125.58 18.264ZM124.964 16.416L123.746 12.818L122.542 16.416H124.964ZM130.378 15.072C130.378 14.1013 130.588 13.238 131.008 12.482C131.428 11.7167 132.011 11.124 132.758 10.704C133.514 10.2747 134.368 10.06 135.32 10.06C136.487 10.06 137.485 10.368 138.316 10.984C139.147 11.6 139.702 12.44 139.982 13.504H137.35C137.154 13.0933 136.874 12.7807 136.51 12.566C136.155 12.3513 135.749 12.244 135.292 12.244C134.555 12.244 133.957 12.5007 133.5 13.014C133.043 13.5273 132.814 14.2133 132.814 15.072C132.814 15.9307 133.043 16.6167 133.5 17.13C133.957 17.6433 134.555 17.9 135.292 17.9C135.749 17.9 136.155 17.7927 136.51 17.578C136.874 17.3633 137.154 17.0507 137.35 16.64H139.982C139.702 17.704 139.147 18.544 138.316 19.16C137.485 19.7667 136.487 20.07 135.32 20.07C134.368 20.07 133.514 19.86 132.758 19.44C132.011 19.0107 131.428 18.418 131.008 17.662C130.588 16.906 130.378 16.0427 130.378 15.072ZM148.146 20L144.842 15.66V20H142.448V10.172H144.842V14.484L148.118 10.172H150.932L147.124 14.988L151.072 20H148.146Z" fill="#121212"/>
</g>
<defs>
<filter id="filter0_d_1_13" x="0" y="0" width="155.072" height="38" filterUnits="userSpaceOnUse" color-interpolation-filters="sRGB">
<feFlood flood-opacity="0" result="BackgroundImageFix"/>
<feColorMatrix in="SourceAlpha" type="matrix" values="0 0 0 0 0 0 0 0 0 0 0 0 0 0 0 0 0 0 127 0" result="hardAlpha"/>
<feOffset dy="4"/>
<feGaussianBlur stdDeviation="2"/>
<feComposite in2="hardAlpha" operator="out"/>
<feColorMatrix type="matrix" values="0 0 0 0 0 0 0 0 0 0 0 0 0 0 0 0 0 0 0.25 0"/>
<feBlend mode="normal" in2="BackgroundImageFix" result="effect1_dropShadow_1_13"/>
<feBlend mode="normal" in="SourceGraphic" in2="effect1_dropShadow_1_13" result="shape"/>
</filter>
</defs>
</svg>
